HIERARCHY
ROOT Hips
{
 OFFSET 0.000000 0.000000 0.000000
 CHANNELS 6 Xposition Yposition Zposition Yrotation Xrotation Zrotation
 JOINT Chest
 {
  OFFSET 0.000000 9.585900 0.002600
  CHANNELS 3 Yrotation Xrotation Zrotation
  JOINT Chest2
  {
   OFFSET 0.000000 9.601200 -0.005300
   CHANNELS 3 Yrotation Xrotation Zrotation
   JOINT Chest3
   {
    OFFSET 0.000000 9.561800 0.000000
    CHANNELS 3 Yrotation Xrotation Zrotation
    JOINT Chest4
    {
     OFFSET 0.000000 9.552100 0.000000
     CHANNELS 3 Yrotation Xrotation Zrotation
     JOINT Neck
     {
      OFFSET 0.000000 14.453000 0.000000
      CHANNELS 3 Yrotation Xrotation Zrotation
      JOINT Head
      {
       OFFSET 0.000000 8.936500 -0.011300
       CHANNELS 3 Yrotation Xrotation Zrotation
       End Site
       {
        OFFSET 0.000000 17.073600 -0.006000
       }
      }
     }
     JOINT RightCollar
     {
      OFFSET -2.921100 9.558500 0.000000
      CHANNELS 3 Yrotation Xrotation Zrotation
      JOINT RightShoulder
      {
       OFFSET -13.519700 0.000000 0.000000
       CHANNELS 3 Yrotation Xrotation Zrotation
       JOINT RightElbow
       {
        OFFSET 0.000000 -29.696600 0.000000
        CHANNELS 3 Yrotation Xrotation Zrotation
        JOINT RightWrist
        {
         OFFSET 0.000000 -24.004700 0.000000
         CHANNELS 3 Yrotation Xrotation Zrotation
         End Site
         {
          OFFSET 0.000000 -17.728500 0.000000
         }
        }
       }
      }
     }
     JOINT LeftCollar
     {
      OFFSET 2.921100 9.558500 0.000000
      CHANNELS 3 Yrotation Xrotation Zrotation
      JOINT LeftShoulder
      {
       OFFSET 13.519700 0.000000 0.000000
       CHANNELS 3 Yrotation Xrotation Zrotation
       JOINT LeftElbow
       {
        OFFSET 0.000000 -29.696600 0.000000
        CHANNELS 3 Yrotation Xrotation Zrotation
        JOINT LeftWrist
        {
         OFFSET 0.000000 -24.004700 0.000000
         CHANNELS 3 Yrotation Xrotation Zrotation
         End Site
         {
          OFFSET 0.000000 -17.728500 0.000000
         }
        }
       }
      }
     }
    }
   }
  }
 }
 JOINT RightHip
 {
  OFFSET -7.771700 -0.012900 -0.001300
  CHANNELS 3 Yrotation Xrotation Zrotation
  JOINT RightKnee
  {
   OFFSET 0.000000 -40.869800 0.001200
   CHANNELS 3 Yrotation Xrotation Zrotation
   JOINT RightAnkle
   {
    OFFSET 0.000000 -39.717900 0.002100
    CHANNELS 3 Yrotation Xrotation Zrotation
    JOINT RightToe
    {
     OFFSET 0.000000 -4.965400 11.033500
     CHANNELS 3 Yrotation Xrotation Zrotation
     End Site
     {
      OFFSET 0.000000 -1.423100 5.872300
     }
    }
   }
  }
 }
 JOINT LeftHip
 {
  OFFSET 7.771700 -0.012900 -0.001300
  CHANNELS 3 Yrotation Xrotation Zrotation
  JOINT LeftKnee
  {
   OFFSET 0.000000 -40.869800 0.001200
   CHANNELS 3 Yrotation Xrotation Zrotation
   JOINT LeftAnkle
   {
    OFFSET 0.000000 -39.717900 0.002100
    CHANNELS 3 Yrotation Xrotation Zrotation
    JOINT LeftToe
    {
     OFFSET 0.000000 -4.965400 11.033500
     CHANNELS 3 Yrotation Xrotation Zrotation
     End Site
     {
      OFFSET 0.000000 -1.423100 5.872300
     }
    }
   }
  }
 }
}
MOTION
Frames: 13
Frame Time: 0.008333
0.000000 85.388000 0.000000 0.000000 -5.767877 0.000000 0.000000 11.653817 0.000000 0.000000 -5.885947 0.000000 0.000000 -0.000000 0.000000 0.000000 -0.000000 0.000000 0.000000 12.528835 0.000000 0.000000 0.711642 0.000000 0.000000 -0.000000 0.000000 0.000000 0.000000 -90.000000 0.000000 -2.309062 0.000000 0.000000 2.309062 0.000000 0.000000 -0.000000 0.000000 0.000000 -0.000000 90.000000 0.000000 -2.309062 0.000000 0.000000 2.309062 0.000000 0.000000 8.520406 0.000000 0.000000 1.905762 0.000000 -0.000000 -4.658285 0.000000 0.000000 -0.000000 0.000000 0.000000 8.520406 0.000000 0.000000 1.905762 0.000000 -0.000000 -4.658285 0.000000 0.000000 -0.000000 0.000000
-39.081980 52.965785 -5.225177 -176.466814 -15.179969 -2.306737 0.192355 16.897942 1.947463 -0.005349 1.764954 0.214646 -0.012688 2.976359 0.370526 0.171283 14.852961 1.829785 -0.002261 19.367722 -3.060691 0.707891 -5.251036 -3.277256 2.539950 1.004755 1.637705 7.066184 -15.585334 -11.642211 -107.933618 -76.509987 144.816658 -6.783029 -26.860142 -13.776613 -6.707151 0.707988 -0.353831 -1.117278 -12.679985 10.440577 54.591191 -62.683641 -96.327487 1.959379 -10.880150 8.302040 2.068905 -63.187618 9.948449 177.911918 86.168585 175.912349 -12.609141 -22.782038 13.034819 0.009248 -0.043949 0.022064 4.989921 -61.592409 -4.554853 120.169402 78.239063 117.954902 -6.879165 -20.027665 -0.269476 0.004780 0.165302 0.002868
-39.080321 52.963748 -5.225590 -176.459456 -15.164456 -2.302835 0.174808 16.933781 1.958703 -0.004041 1.744211 0.206267 -0.012870 2.982963 0.371337 0.164522 14.856620 1.829960 -0.249221 19.354731 -3.028930 0.443998 -5.275949 -3.187946 2.587740 0.950372 1.649794 7.178195 -15.528840 -11.712271 -107.669696 -76.476513 144.747320 -6.782258 -26.892971 -13.703665 -6.701728 0.682623 -0.368413 -1.180715 -12.744993 10.513182 54.350837 -62.599029 -96.107631 1.957551 -10.774731 8.372937 2.074978 -63.204742 9.920130 177.696810 86.160406 175.679462 -12.467480 -22.797670 13.007630 0.014977 -0.049213 0.018574 4.971956 -61.606336 -4.545484 120.176052 78.244191 117.951792 -6.876775 -20.033630 -0.278836 0.007433 0.171588 0.009820
-39.079730 52.961429 -5.225599 -176.449415 -15.146460 -2.291237 0.156949 16.947429 1.953737 -0.009190 1.780661 0.217263 -0.008840 2.934755 0.354972 0.150483 14.883711 1.839895 -0.510624 19.338391 -2.998017 0.163530 -5.301520 -3.086657 2.642689 0.901781 1.653969 7.269650 -15.476373 -11.764241 -107.517672 -76.461337 144.764883 -6.768648 -26.930669 -13.663752 -6.690333 0.655519 -0.393470 -1.244902 -12.819820 10.581174 54.105005 -62.516359 -95.878185 1.953316 -10.671834 8.449612 2.085726 -63.227599 9.914280 178.085551 86.154438 176.067351 -12.510699 -22.793719 13.017437 0.012229 -0.042067 0.019785 4.962703 -61.622012 -4.552717 120.167102 78.248448 117.932377 -6.878294 -20.035053 -0.285749 0.013630 0.175316 0.012710
-39.079298 52.959122 -5.225469 -176.437800 -15.129131 -2.278144 0.138661 16.939024 1.938604 -0.009247 1.808315 0.221266 -0.012665 2.919250 0.353078 0.131791 14.914838 1.840985 -0.780139 19.322466 -2.958741 -0.138677 -5.323461 -2.972689 2.736152 0.866660 1.693242 7.323317 -15.430033 -11.830726 -107.500776 -76.465455 144.885649 -6.739313 -26.968490 -13.653411 -6.669774 0.622700 -0.411467 -1.311885 -12.896064 10.641649 53.971359 -62.444544 -95.720179 1.962886 -10.535219 8.503728 2.093155 -63.250072 9.923338 178.852895 86.151335 176.846174 -12.644971 -22.783257 13.045257 0.003530 -0.026767 0.020264 4.957837 -61.637302 -4.565330 120.159267 78.254250 117.916254 -6.882517 -20.033942 -0.291764 0.020843 0.178626 0.016095
-39.076933 52.957138 -5.225467 -176.429241 -15.115155 -2.275915 0.130785 16.957141 1.942050 -0.008513 1.813798 0.215925 -0.017899 2.921418 0.358049 0.116460 14.926098 1.835729 -1.070405 19.314847 -2.916130 -0.465818 -5.342044 -2.843425 2.784845 0.827668 1.706999 7.398084 -15.371756 -11.850684 -107.615582 -76.489778 145.102225 -6.704245 -26.999982 -13.652098 -6.652703 0.579051 -0.416830 -1.345839 -12.932070 10.668645 53.729203 -62.410803 -95.541319 1.960226 -10.494913 8.605458 2.083442 -63.263887 9.912586 178.874643 86.144958 176.847193 -12.514026 -22.800993 13.032292 0.000692 -0.029826 0.008142 4.924456 -61.653604 -4.542123 120.177408 78.259869 117.922459 -6.886043 -20.030374 -0.302370 0.024089 0.178616 0.018884
-39.074376 52.955722 -5.226107 -176.426575 -15.109465 -2.274585 0.135211 17.009960 1.943162 -0.010892 1.792795 0.212998 -0.016149 2.973690 0.354856 0.109558 14.894177 1.832103 -1.384721 19.307818 -2.858985 -0.814022 -5.356566 -2.699444 2.819000 0.774494 1.730347 7.422730 -15.339049 -11.863733 -107.619934 -76.517463 145.217791 -6.671060 -27.020115 -13.648817 -6.655717 0.553834 -0.424381 -1.418894 -13.031129 10.737521 53.524141 -62.346981 -95.361500 1.959649 -10.482734 8.716336 2.066058 -63.266665 9.902595 178.631916 86.137510 176.568882 -12.323814 -22.825871 13.014976 0.008470 -0.034726 -0.005624 4.867645 -61.661866 -4.493819 120.204591 78.262024 117.924946 -6.886557 -20.029177 -0.310893 0.026329 0.178921 0.022022
-39.073919 52.954388 -5.225528 -176.426856 -15.101736 -2.261506 0.135795 17.041098 1.926801 -0.011984 1.789728 0.211365 -0.016323 2.982127 0.352123 0.112282 14.914564 1.822102 -1.717808 19.302779 -2.791059 -1.177701 -5.360467 -2.546489 2.842242 0.701943 1.760182 7.514445 -15.228780 -11.837393 -107.965509 -76.580143 145.573158 -6.640689 -27.029913 -13.646812 -6.676877 0.522134 -0.424991 -1.471331 -13.123670 10.804143 53.408779 -62.300629 -95.265389 1.963271 -10.490386 8.804979 2.055999 -63.274270 9.896592 178.527674 86.130108 176.432608 -12.271910 -22.835039 13.025631 0.020059 -0.032505 -0.011757 4.880239 -61.668589 -4.511583 120.193178 78.261226 117.909471 -6.888535 -20.027489 -0.314268 0.026840 0.179069 0.021201
-39.077606 52.952726 -5.222070 -176.414810 -15.081810 -2.228936 0.112980 17.049599 1.881232 -0.011884 1.794752 0.209460 -0.016192 2.990119 0.348942 0.107628 14.983331 1.783783 -2.043008 19.261204 -2.695989 -1.553649 -5.349667 -2.391907 2.867386 0.568347 1.813099 7.608407 -15.099651 -11.783546 -108.321971 -76.659833 145.915585 -6.614629 -27.036896 -13.647548 -6.696459 0.445292 -0.398953 -1.496668 -13.193539 10.869538 53.358639 -62.265856 -95.211799 1.965804 -10.484686 8.853297 2.076191 -63.295632 9.840200 178.342205 86.118914 176.216974 -12.306806 -22.836560 13.055193 0.023135 -0.028029 -0.012264 4.924408 -61.684485 -4.582129 120.126928 78.262321 117.849855 -6.918054 -20.051642 -0.331115 0.054876 0.214239 0.033486
-39.076516 52.951874 -5.219196 -176.410023 -15.068504 -2.227447 0.106556 17.049725 1.872793 -0.012702 1.811341 0.198449 -0.015717 2.997116 0.345299 0.106847 15.015349 1.755654 -2.381100 19.261305 -2.618960 -1.934798 -5.328705 -2.241769 2.881641 0.473730 1.860197 7.684342 -14.987831 -11.722214 -108.546542 -76.739763 146.122658 -6.572874 -27.070995 -13.668506 -6.780291 0.416187 -0.418556 -1.444035 -13.246601 10.959382 53.354241 -62.285209 -95.303698 1.928825 -10.480414 8.975379 2.005467 -63.304019 9.868674 177.904006 86.111277 175.728773 -12.301402 -22.837567 13.077340 0.022865 -0.029088 -0.016577 4.899493 -61.699127 -4.570056 120.085621 78.263438 117.801357 -6.916170 -20.044359 -0.338824 0.053663 0.217060 0.034082
-39.077550 52.951375 -5.215859 -176.410259 -15.056580 -2.217141 0.102193 17.050449 1.854385 -0.013664 1.824705 0.183673 -0.015625 3.002945 0.341238 0.105154 15.029771 1.733207 -2.715979 19.272918 -2.556579 -2.306667 -5.309675 -2.100467 2.895842 0.416571 1.904910 7.756080 -14.895024 -11.651194 -108.705839 -76.820754 146.244599 -6.570209 -27.079111 -13.668807 -6.853770 0.387523 -0.425529 -1.395960 -13.276089 11.033009 53.395597 -62.313675 -95.441848 1.913469 -10.466711 9.087350 1.990090 -63.315380 9.863321 177.712426 86.107378 175.515455 -12.451274 -22.827161 13.131919 0.024016 -0.017943 -0.011580 4.883043 -61.712812 -4.568517 120.044903 78.259533 117.746400 -6.909957 -20.032725 -0.343451 0.051537 0.214263 0.030797
-39.080536 52.951437 -5.212857 -176.407047 -15.049337 -2.202415 0.090535 17.083695 1.792157 -0.012014 1.805828 0.202206 -0.016526 3.007756 0.336823 0.098053 15.042050 1.708826 -3.026346 19.268693 -2.496868 -2.652217 -5.307472 -1.967479 2.895181 0.327681 1.952979 7.831382 -14.773783 -11.565518 -108.770110 -76.896173 146.265421 -6.574801 -27.096272 -13.693861 -6.911517 0.355395 -0.421342 -1.371617 -13.303034 11.111442 53.460502 -62.322376 -95.559151 1.928303 -10.444282 9.185853 1.982669 -63.330589 9.923672 178.679111 86.117031 176.543230 -13.181997 -22.758357 13.266045 0.006162 0.022145 0.018141 4.902449 -61.718500 -4.599246 120.002655 78.260548 117.702050 -6.913581 -20.022742 -0.346660 0.057866 0.208434 0.030959
-39.084779 52.952050 -5.210196 -176.390179 -15.044691 -2.190543 0.061979 17.094823 1.745725 -0.006731 1.800514 0.215338 -0.025417 3.019088 0.316333 0.086682 15.051969 1.682962 -3.298237 19.244438 -2.433523 -2.957830 -5.327690 -1.839051 2.829558 0.219658 1.988180 7.949006 -14.639212 -11.452908 -108.851662 -76.966414 146.315855 -6.596500 -27.116903 -13.745019 -6.966461 0.325317 -0.414875 -1.401961 -13.324232 11.207021 53.583674 -62.326231 -95.671850 1.847909 -10.366902 9.212127 1.974435 -63.343882 9.990169 179.889787 86.129557 177.834898 -14.006245 -22.679034 13.410025 -0.023463 0.058995 0.040917 4.909497 -61.720594 -4.630650 119.958021 78.263544 117.653873 -6.918465 -20.014552 -0.348338 0.063441 0.208579 0.033899
